name Walk8.mot
datacolumns 19
datarows 17
range 3.56300000 3.57900000
endheader

                time	   L_ground_force_vx	   L_ground_force_vy	   L_ground_force_vz	   L_ground_force_px	   L_ground_force_py	   L_ground_force_pz	   R_ground_force_vx	   R_ground_force_vy	   R_ground_force_vz	   R_ground_force_px	   R_ground_force_py	   R_ground_force_pz	   L_ground_torque_x	   L_ground_torque_y	   L_ground_torque_z	   R_ground_torque_x	   R_ground_torque_y	   R_ground_torque_z	
          3.56300000	          0.06608217	          0.13933445	         -0.01125992	         -0.00017478	          0.00000000	          0.00006775	        -26.75881008	        684.38008701	        -46.24891408	          0.42985946	          0.00000000	          0.13909146	          0.00000000	          0.00002437	          0.00000000	          0.00000000	          5.41416456	          0.00000000	
          3.56400000	          0.06246987	          0.13118204	         -0.01103017	         -0.00017299	          0.00000000	          0.00006721	        -26.52912165	        683.41764648	        -46.08029726	          0.43032365	          0.00000000	          0.13909944	          0.00000000	          0.00001863	          0.00000000	          0.00000000	          5.36326581	          0.00000000	
          3.56500000	          0.05892865	          0.12322708	         -0.01077827	         -0.00017069	          0.00000000	          0.00006647	        -26.30120582	        682.46728239	        -45.91662019	          0.43078610	          0.00000000	          0.13910746	          0.00000000	          0.00001331	          0.00000000	          0.00000000	          5.31310283	          0.00000000	
          3.56600000	          0.05546584	          0.11548283	         -0.01050706	         -0.00016795	          0.00000000	          0.00006554	        -26.07497252	        681.52904425	        -45.75804596	          0.43124680	          0.00000000	          0.13911554	          0.00000000	          0.00000839	          0.00000000	          0.00000000	          5.26366181	          0.00000000	
          3.56700000	          0.05208786	          0.10796066	         -0.01021921	         -0.00016480	          0.00000000	          0.00006444	        -25.85032837	        680.60299712	        -45.60472806	          0.43170575	          0.00000000	          0.13912369	          0.00000000	          0.00000385	          0.00000000	          0.00000000	          5.21492726	          0.00000000	
          3.56800000	          0.04880026	          0.10067008	         -0.00991721	         -0.00016130	          0.00000000	          0.00006319	        -25.62717630	        679.68922305	        -45.45680984	          0.43216293	          0.00000000	          0.13913195	          0.00000000	         -0.00000031	          0.00000000	          0.00000000	          5.16688186	          0.00000000	
          3.56900000	          0.04560778	          0.09361898	         -0.00960342	         -0.00015749	          0.00000000	          0.00006181	        -25.40541545	        678.78782200	        -45.31442424	          0.43261834	          0.00000000	          0.13914032	          0.00000000	         -0.00000411	          0.00000000	          0.00000000	          5.11950657	          0.00000000	
          3.57000000	          0.04251440	          0.08681362	         -0.00928002	         -0.00015341	          0.00000000	          0.00006031	        -25.18494138	        677.89891217	        -45.17769330	          0.43307200	          0.00000000	          0.13914881	          0.00000000	         -0.00000758	          0.00000000	          0.00000000	          5.07278084	          0.00000000	
          3.57100000	          0.03952338	          0.08025884	         -0.00894904	         -0.00014909	          0.00000000	          0.00005871	        -24.96564679	        677.02262964	        -45.04672764	          0.43352390	          0.00000000	          0.13915743	          0.00000000	         -0.00001073	          0.00000000	          0.00000000	          5.02668293	          0.00000000	
          3.57200000	          0.03663732	          0.07395809	         -0.00861239	         -0.00014458	          0.00000000	          0.00005703	        -24.74742254	        676.15912743	        -44.92162563	          0.43397407	          0.00000000	          0.13916619	          0.00000000	         -0.00001356	          0.00000000	          0.00000000	          4.98119019	          0.00000000	
          3.57300000	          0.03385819	          0.06791359	         -0.00827183	         -0.00013990	          0.00000000	          0.00005527	        -24.53015856	        675.30857382	        -44.80247231	          0.43442251	          0.00000000	          0.13917509	          0.00000000	         -0.00001611	          0.00000000	          0.00000000	          4.93627928	          0.00000000	
          3.57400000	          0.03118742	          0.06212639	         -0.00792896	         -0.00013509	          0.00000000	          0.00005346	        -24.31374467	        674.47115017	        -44.68933818	          0.43486925	          0.00000000	          0.13918414	          0.00000000	         -0.00001837	          0.00000000	          0.00000000	          4.89192635	          0.00000000	
          3.57500000	          0.02862588	          0.05659647	         -0.00758528	         -0.00013019	          0.00000000	          0.00005159	        -24.09807103	        673.64704835	        -44.58227812	          0.43531431	          0.00000000	          0.13919332	          0.00000000	         -0.00002038	          0.00000000	          0.00000000	          4.84810718	          0.00000000	
          3.57600000	          0.02617396	          0.05132287	         -0.00724216	         -0.00012520	          0.00000000	          0.00004969	        -23.88302844	        672.83646835	        -44.48133072	          0.43575772	          0.00000000	          0.13920263	          0.00000000	         -0.00002213	          0.00000000	          0.00000000	          4.80479731	          0.00000000	
          3.57700000	          0.02383161	          0.04630372	         -0.00690084	         -0.00012017	          0.00000000	          0.00004777	        -23.66850857	        672.03961641	        -44.38651813	          0.43619951	          0.00000000	          0.13921206	          0.00000000	         -0.00002366	          0.00000000	          0.00000000	          4.76197215	          0.00000000	
          3.57800000	          0.02159836	          0.04153634	         -0.00656247	         -0.00011511	          0.00000000	          0.00004582	        -23.45440427	        671.25670399	        -44.29784645	          0.43663969	          0.00000000	          0.13922161	          0.00000000	         -0.00002496	          0.00000000	          0.00000000	          4.71960702	          0.00000000	
          3.57900000	          0.01947338	          0.03701735	         -0.00622807	         -0.00011005	          0.00000000	          0.00004387	        -23.24061001	        670.48794755	        -44.21530645	          0.43707829	          0.00000000	          0.13923126	          0.00000000	         -0.00002606	          0.00000000	          0.00000000	          4.67767710	          0.00000000	
